<svg width="100" height="100" viewBox="0 0 100 100" fill="none" xmlns="http://www.w3.org/2000/svg">
<path fill-rule="evenodd" clip-rule="evenodd" d="M10 48.7595C10.2501 31.737 25.9039 23.535 40.317 32.9805C52.6168 41.0577 57.2147 55.5956 72.6216 61.309C87.5316 66.901 88.2782 43.5423 75.3567 42.1731C68.2737 41.4261 62.6816 45.6522 58.5838 50.9937C57.5898 49.8747 56.7209 48.7556 55.7269 47.6398C58.2119 44.5328 61.3189 40.1848 69.8927 37.5749C62.6847 39.1909 57.7146 44.0358 55.1075 47.018L54.7356 46.521C59.9555 40.6821 67.2858 35.9592 75.4878 36.581C97.7308 38.569 93.2545 76.8404 71.0149 67.1476C55.111 60.1897 51.01 46.1489 38.2133 38.0718C27.9012 31.4858 16.7177 36.0838 16.2208 48.6335C15.4737 70.1291 39.5792 68.888 51.5077 51.8656L51.8797 52.3626C49.5198 55.8416 46.1627 60.4397 37.7139 64.2903C46.2879 60.9363 50.0136 56.3383 52.499 52.9843C53.368 54.1033 54.362 55.2224 55.356 56.3383C41.6871 78.4564 9.62887 76.2183 10.0042 48.7583L10 48.7595ZM11.988 43.5396C14.598 31.3614 27.0229 26.1449 38.5785 33.2275C29.2602 30.1205 18.9457 29.2514 11.988 43.5396Z" fill="#D8C299"/>
</svg>
